<?xml version="1.0" encoding="UTF-8" standalone="no"?>
<!-- Created with Inkscape (http://www.inkscape.org/) -->

<svg
   width="270.93332mm"
   height="270.93332mm"
   viewBox="0 0 270.93332 270.93332"
   version="1.1"
   id="svg26"
   inkscape:version="1.1.1 (3bf5ae0d25, 2021-09-20)"
   sodipodi:docname="discord-icon.svg"
   xmlns:inkscape="http://www.inkscape.org/namespaces/inkscape"
   xmlns:sodipodi="http://sodipodi.sourceforge.net/DTD/sodipodi-0.dtd"
   xmlns="http://www.w3.org/2000/svg"
   xmlns:svg="http://www.w3.org/2000/svg">
  <sodipodi:namedview
     id="namedview28"
     pagecolor="#505050"
     bordercolor="#eeeeee"
     borderopacity="1"
     inkscape:pageshadow="0"
     inkscape:pageopacity="0"
     inkscape:pagecheckerboard="0"
     inkscape:document-units="mm"
     showgrid="false"
     inkscape:zoom="0.35355339"
     inkscape:cx="448.3057"
     inkscape:cy="666.09459"
     inkscape:window-width="1294"
     inkscape:window-height="1081"
     inkscape:window-x="2289"
     inkscape:window-y="244"
     inkscape:window-maximized="0"
     inkscape:current-layer="g122"
     units="px"
     showguides="false">
    <inkscape:grid
       type="xygrid"
       id="grid8"
       originx="-4.9281103e-08"
       originy="4.9316044e-07" />
  </sodipodi:namedview>
  <defs
     id="defs23" />
  <g
     inkscape:label="Calque 1"
     inkscape:groupmode="layer"
     id="layer1">
    <g
       id="g122"
       transform="matrix(0.26458333,0,0,0.26458333,-23.53883,33.615809)"
       style="display:inline">
      <path
         id="circle110"
         style="fill:#ffffff;stroke-width:1"
         d="m 600.96564,-127.05188 a 511.99997,511.99999 0 0 0 -511.999982,512 511.99997,511.99999 0 0 0 511.999982,511.99995 511.99997,511.99999 0 0 0 511.99996,-511.99995 511.99997,511.99999 0 0 0 -511.99996,-512 z m -73.38086,316.67969 a 1.64,1.64 0 0 1 1.67969,0.78906 269.74999,269.75 0 0 1 13.17968,26.66016 389.77998,389.78 0 0 1 117.05078,0 294.10998,294.11 0 0 1 13,-26.66016 1.5799999,1.58 0 0 1 1.67968,-0.78906 422.20997,422.20999 0 0 1 104.2207,32.32031 1.3,1.3 0 0 1 0.62891,0.62891 c 57.82,85.04 86.38117,180.97992 75.70117,291.41992 a 1.64,1.64 0 0 1 -0.66992,1.17969 423.16997,423.16999 0 0 1 -128,64.63086 1.6199999,1.62 0 0 1 -1.80078,-0.60938 340.71999,340.72 0 0 1 -26.13085,-42.52148 1.63,1.63 0 0 1 0.87108,-2.2793 262.36999,262.37 0 0 0 40,-19 1.64,1.64 0 0 0 0.14063,-2.7207 c -2.75,-2.01 -5.43999,-4.13023 -8,-6.24023 a 1.5799999,1.58 0 0 0 -1.68163,-0.19922 c -82.80001,38.26 -173.5186,38.26 -257.30859,0 a 1.5799999,1.58 0 0 0 -1.65039,0.2207 c -2.56001,2.12 -5.24969,4.21875 -7.92969,6.21875 a 1.64,1.64 0 0 0 0.16015,2.7207 279.59999,279.6 0 0 0 39.93947,19 1.6199999,1.62 0 0 1 0.89062,2.25 303.44999,303.45 0 0 1 -26.15039,42.53907 1.66,1.66 0 0 1 -1.80079,0.59179 424.57998,424.57999 0 0 1 -127.8496,-64.63086 1.76,1.76 0 0 1 -0.66992,-1.19922 c -8.92,-95.50999 9.26086,-192.24015 75.63086,-291.41015 a 1.4899999,1.49 0 0 1 0.68944,-0.58985 420.99997,420.99999 0 0 1 104.17969,-32.32031 z m -11.52929,162.96875 c -25.62001,0 -46,23.16156 -46,51.60156 0,28.44 20.76999,51.59961 46,51.59961 25.62999,0 46.01999,-23.15961 45.99999,-51.59961 0.42,-28.24 -20.17,-51.60156 -45.99999,-51.60156 z m 170.1289,0 c -25.62001,0 -46,23.16156 -46,51.60156 0,28.44 20.77,51.59961 46,51.59961 25.82999,0 46.00999,-23.15961 45.99999,-51.59961 0.42,-28.24 -20.17,-51.60156 -45.99999,-51.60156 z" />
    </g>
  </g>
</svg>
