<svg width="75.913mm" height="75.909mm" version="1.1" viewBox="0 0 75.913 75.909" xmlns="http://www.w3.org/2000/svg">
    <g transform="translate(-63.2548 -56.7929)">
        <g transform="matrix(.264583 0 0 .264583 .262214 -44.3758)">
            <g transform="matrix(3.81893 0 0 3.81893 -1398.14 -1597.46)" style="fill:#ffffff">
                <g transform="translate(-560.19,271.89)" style="fill:#ffffff">
                    <path d="m1005.12 266.791c-1.3921-1.1e-4 -2.547 1.15109-2.5468 2.54492v29.5195c-5e-4 1.39403 1.1514 2.54895 2.5468 2.54883h42.1719c1.3955 1.2e-4 2.5476-1.15456 2.5469-2.54883v-29.5195c0-1.39376-1.1547-2.54503-2.5469-2.54492zm6.7852 5.83203h28.5879l-14.291 12.4883zm32.8398 3.04687v17.7774l-10.0722-8.97852zm-37.0781 0.0117 10.1211 8.84375-10.1211 9.02344zm23.1406 12.1641 9.4297 8.40625h-27.9453l9.3633-8.34765 2.8691 2.50586a1.06999 1.06999 0 0 0 0 2e-3c0.953 0.83198 2.3947 0.83188 3.3477 0a1.06999 1.06999 0 0 0 0-2e-3zm32.9631-3.7488a37.5649 37.5629 0 0 1-37.5649 37.5629 37.5649 37.5629 0 0 1-37.5649-37.5629 37.5649 37.5629 0 0 1 37.5649-37.5629 37.5649 37.5629 0 0 1 37.5649 37.5629z" style="stroke-linecap:round;stroke-linejoin:round;stroke-width:2.952"/>
                </g>
            </g>
        </g>
    </g>
</svg>
